<!-- Generated by IcoMoon.io -->
<svg version="1.1" xmlns="http://www.w3.org/2000/svg" width="35" height="32" viewBox="0 0 35 32">
<title>icon-img</title>
<path d="M2.037 29.091c0 0.482 0.391 0.873 0.873 0.873h7.855c0.482 0 0.873-0.391 0.873-0.873s-0.391-0.873-0.873-0.873h-6.982v-6.982c0-0.482-0.391-0.873-0.873-0.873s-0.873 0.391-0.873 0.873v7.855zM11.019 19.747l-8.727 8.727 1.234 1.234 8.727-8.727-1.234-1.234z"></path>
<path d="M2.909 2.037c-0.482 0-0.873 0.391-0.872 0.873l0.003 7.855c0 0.482 0.391 0.873 0.873 0.872s0.873-0.391 0.872-0.873l-0.003-6.982 6.982-0.003c0.482-0 0.873-0.391 0.872-0.873s-0.391-0.873-0.873-0.872l-7.855 0.003zM12.257 11.016l-8.731-8.724-1.234 1.235 8.731 8.724 1.234-1.235z"></path>
<path d="M32.873 2.909c0-0.482-0.391-0.873-0.873-0.873h-7.855c-0.482 0-0.873 0.391-0.873 0.873s0.391 0.873 0.873 0.873h6.982v6.982c0 0.482 0.391 0.873 0.873 0.873s0.873-0.391 0.873-0.873v-7.855zM23.89 12.253l8.727-8.727-1.234-1.234-8.727 8.727 1.234 1.234z"></path>
<path d="M32.086 29.884c0.482-0.004 0.869-0.399 0.865-0.881l-0.071-7.854c-0.004-0.482-0.399-0.869-0.881-0.865s-0.869 0.399-0.865 0.881l0.063 6.982-6.981 0.063c-0.482 0.004-0.869 0.399-0.865 0.881s0.399 0.869 0.881 0.865l7.854-0.071zM22.661 20.986l8.806 8.648 1.223-1.245-8.806-8.648-1.223 1.245z"></path>
</svg>
