<!-- Generated by IcoMoon.io -->
<svg version="1.1" xmlns="http://www.w3.org/2000/svg" width="32" height="32" viewBox="0 0 32 32">
<title>icon-chain</title>
<path d="M29.681 5.82l-3.879-3.919c-1.716-1.729-4.505-1.739-6.225-0.018l-4.304 4.288c-1.723 1.72-1.73 4.518-0.019 6.247l2.46-2.414c-0.249-0.769 0.057-1.65 0.666-2.26l2.738-2.726c0.867-0.865 2.259-0.859 3.115 0.005l2.329 2.355c0.857 0.864 0.853 2.259-0.009 3.126l-2.738 2.729c-0.579 0.577-1.53 0.894-2.268 0.691l-2.409 2.416c1.714 1.734 4.5 1.74 6.225 0.020l4.299-4.286c1.728-1.721 1.734-4.521 0.020-6.253zM13.922 21.529c0.204 0.752-0.123 1.724-0.715 2.317l-2.557 2.555c-0.878 0.873-2.296 0.871-3.169-0.013l-2.376-2.393c-0.871-0.88-0.865-2.313 0.011-3.185l2.56-2.554c0.624-0.622 1.52-0.933 2.302-0.67l2.467-2.501c-1.746-1.761-4.589-1.769-6.342-0.018l-4.15 4.141c-1.756 1.754-1.764 4.605-0.019 6.367l3.95 3.996c1.745 1.755 4.585 1.769 6.342 0.018l4.15-4.142c1.754-1.756 1.762-4.602 0.019-6.367l-2.473 2.448zM13.35 20.401c-0.592 0.595-1.544 0.593-2.125-0.011-0.584-0.605-0.58-1.574 0.009-2.172l7.093-7.208c0.589-0.595 1.538-0.593 2.121 0.006 0.587 0.601 0.584 1.572-0.007 2.174l-7.091 7.211z"></path>
</svg>
